<svg width="480" height="320" viewBox="0 0 480 320" xmlns="http://www.w3.org/2000/svg">
  <defs>
    <linearGradient id="bg" x1="0" y1="0" x2="1" y2="1">
      <stop offset="0%" stop-color="#f0f9ff" />
      <stop offset="100%" stop-color="#dbeafe" />
    </linearGradient>
    <linearGradient id="pin" x1="0" y1="0" x2="1" y2="1">
      <stop offset="0%" stop-color="#38bdf8" />
      <stop offset="100%" stop-color="#0ea5e9" />
    </linearGradient>
    <linearGradient id="route" x1="0" y1="0" x2="1" y2="1">
      <stop offset="0%" stop-color="#6366f1" stop-opacity="0.9" />
      <stop offset="100%" stop-color="#a855f7" stop-opacity="0.9" />
    </linearGradient>
    <filter id="soft" x="-10%" y="-10%" width="120%" height="120%">
      <feDropShadow dx="0" dy="8" stdDeviation="12" flood-color="#0f172a" flood-opacity="0.2" />
    </filter>
  </defs>
  <rect width="480" height="320" rx="32" fill="url(#bg)" />
  <path d="M40 250 C120 200 200 260 280 220 C360 180 440 230 460 200" stroke="#e0e7ff" stroke-width="38" stroke-linecap="round" fill="none" />
  <circle cx="140" cy="140" r="70" fill="#fff" opacity="0.9" />
  <circle cx="320" cy="110" r="50" fill="#fff" opacity="0.9" />
  <g filter="url(#soft)">
    <path d="M120 140 C180 80 260 80 320 130" stroke="url(#route)" stroke-width="10" stroke-linecap="round" fill="none" />
    <circle cx="120" cy="140" r="18" fill="#fff" stroke="url(#route)" stroke-width="8" />
    <circle cx="320" cy="130" r="26" fill="#fff" stroke="url(#route)" stroke-width="8" />
    <path d="M320 70 C360 80 380 110 380 140 C380 190 320 260 320 260 C320 260 260 190 260 140 C260 100 290 70 320 70 Z" fill="url(#pin)" />
    <circle cx="320" cy="140" r="24" fill="#fff" opacity="0.9" />
    <circle cx="320" cy="140" r="14" fill="#0ea5e9" opacity="0.9" />
  </g>
  <circle cx="340" cy="240" r="12" fill="#bae6fd" opacity="0.8" />
  <circle cx="160" cy="230" r="12" fill="#bae6fd" opacity="0.6" />
  <circle cx="210" cy="190" r="6" fill="#38bdf8" opacity="0.6" />
</svg>
