<svg width="480" height="320" viewBox="0 0 480 320" xmlns="http://www.w3.org/2000/svg">
  <defs>
    <linearGradient id="grad" x1="0%" y1="0%" x2="100%" y2="100%">
      <stop offset="0%" stop-color="#7dd3fc" stop-opacity="0.85" />
      <stop offset="100%" stop-color="#38bdf8" stop-opacity="0.95" />
    </linearGradient>
    <linearGradient id="glass" x1="0%" y1="0%" x2="100%" y2="0%">
      <stop offset="0%" stop-color="#ecfeff" stop-opacity="0.95" />
      <stop offset="100%" stop-color="#bae6fd" stop-opacity="0.85" />
    </linearGradient>
    <filter id="shadow" x="-20%" y="-20%" width="140%" height="140%">
      <feDropShadow dx="0" dy="6" stdDeviation="12" flood-color="#0f172a" flood-opacity="0.25" />
    </filter>
  </defs>
  <rect width="480" height="320" rx="32" fill="url(#grad)" />
  <ellipse cx="80" cy="60" rx="18" ry="18" fill="#e0f2fe" opacity="0.8" />
  <ellipse cx="120" cy="40" rx="10" ry="10" fill="#bae6fd" opacity="0.7" />
  <ellipse cx="360" cy="70" rx="14" ry="14" fill="#e0f2fe" opacity="0.8" />
  <ellipse cx="400" cy="45" rx="9" ry="9" fill="#bae6fd" opacity="0.7" />
  <g filter="url(#shadow)">
    <path d="M90 210 Q120 150 190 140 L320 135 Q360 134 390 170 L410 215 Q420 235 400 245 L100 245 Q70 245 80 220 Z" fill="#0f172a" opacity="0.25" />
    <path d="M90 200 Q120 140 190 130 L320 125 Q360 124 390 160 L410 205 Q420 225 400 235 L100 235 Q70 235 80 210 Z" fill="#0f172a" opacity="0.35" />
    <path d="M95 195 Q125 135 195 125 L315 120 Q355 118 385 155 L405 205 Q410 220 395 225 L105 225 Q80 225 90 200 Z" fill="#e2f6ff" />
    <circle cx="165" cy="220" r="30" fill="#0f172a" />
    <circle cx="165" cy="220" r="20" fill="#cbd5f5" />
    <circle cx="330" cy="220" r="30" fill="#0f172a" />
    <circle cx="330" cy="220" r="20" fill="#cbd5f5" />
    <rect x="180" y="135" width="150" height="60" rx="30" fill="url(#glass)" />
    <path d="M110 195 L150 150 Q175 120 210 120 L270 118" stroke="#bae6fd" stroke-width="6" stroke-linecap="round" fill="none" />
    <path d="M280 118 L360 125 Q380 130 395 160" stroke="#bae6fd" stroke-width="6" stroke-linecap="round" fill="none" />
  </g>
  <circle cx="120" cy="250" r="10" fill="#ffffff" opacity="0.35" />
  <circle cx="360" cy="250" r="12" fill="#ffffff" opacity="0.35" />
</svg>
